<?xml version="1.0" encoding="UTF-8" standalone="no"?>
<!-- Generator: Adobe Illustrator 17.0.0, SVG Export Plug-In . SVG Version: 6.00 Build 0)  -->

<svg
   version="1.1"
   id="Layer_1"
   x="0px"
   y="0px"
   width="261"
   height="56"
   viewBox="0 0 261 56"
   enable-background="new 0 0 256 50"
   xml:space="preserve"
   inkscape:version="1.3.2 (091e20ef0f, 2023-11-25)"
   sodipodi:docname="movielens-logo-white.svg"
   xmlns:inkscape="http://www.inkscape.org/namespaces/inkscape"
   xmlns:sodipodi="http://sodipodi.sourceforge.net/DTD/sodipodi-0.dtd"
   xmlns="http://www.w3.org/2000/svg"
   xmlns:svg="http://www.w3.org/2000/svg"
   xmlns:rdf="http://www.w3.org/1999/02/22-rdf-syntax-ns#"
   xmlns:cc="http://creativecommons.org/ns#"
   xmlns:dc="http://purl.org/dc/elements/1.1/"><metadata
   id="metadata31"><rdf:RDF><cc:Work
       rdf:about=""><dc:format>image/svg+xml</dc:format><dc:type
         rdf:resource="http://purl.org/dc/dcmitype/StillImage" /></cc:Work></rdf:RDF></metadata><defs
   id="defs29"><inkscape:path-effect
     effect="fillet_chamfer"
     id="path-effect2"
     is_visible="true"
     lpeversion="1"
     nodesatellites_param="F,0,0,1,0,0,0,1 @ F,0,0,1,0,0,0,1 @ F,0,0,1,0,0,0,1 @ F,0,0,1,0,0,0,1"
     radius="0"
     unit="px"
     method="auto"
     mode="F"
     chamfer_steps="1"
     flexible="false"
     use_knot_distance="true"
     apply_no_radius="true"
     apply_with_radius="true"
     only_selected="false"
     hide_knots="false" /></defs><sodipodi:namedview
   pagecolor="#ffffff"
   bordercolor="#666666"
   borderopacity="1"
   objecttolerance="10"
   gridtolerance="10"
   guidetolerance="10"
   inkscape:pageopacity="0"
   inkscape:pageshadow="2"
   inkscape:window-width="3752"
   inkscape:window-height="2069"
   id="namedview27"
   showgrid="false"
   inkscape:zoom="7.7781746"
   inkscape:cx="116.41549"
   inkscape:cy="-12.277945"
   inkscape:window-x="2008"
   inkscape:window-y="50"
   inkscape:window-maximized="1"
   inkscape:current-layer="Layer_1"
   inkscape:showpageshadow="2"
   inkscape:pagecheckerboard="0"
   inkscape:deskcolor="#d1d1d1"><inkscape:grid
     id="grid2"
     units="px"
     originx="0"
     originy="0"
     spacingx="1"
     spacingy="1"
     empcolor="#0099e5"
     empopacity="0.30196078"
     color="#0099e5"
     opacity="0.14901961"
     empspacing="5"
     dotted="false"
     gridanglex="30"
     gridanglez="30"
     visible="false" /></sodipodi:namedview>

<rect
   style="fill:#f06624;fill-opacity:1"
   id="rect2"
   width="261"
   height="56"
   x="0"
   y="0"
   ry="12.215106" /><g
   id="g3"
   style="fill:#ffffff"
   transform="translate(2.5,3)">
	<path
   fill="#F16625"
   d="m 76.22,15.292 c -1.369,-1.515 -3,-2.684 -4.894,-3.505 -1.895,-0.821 -3.958,-1.231 -6.189,-1.231 -2.232,0 -4.295,0.41 -6.189,1.231 -1.895,0.821 -3.527,1.99 -4.895,3.505 -1.369,1.516 -2.431,3.337 -3.189,5.463 -0.758,2.126 -1.137,4.474 -1.137,7.042 0,2.611 0.379,4.969 1.137,7.073 0.758,2.106 1.821,3.915 3.189,5.431 1.368,1.516 3,2.684 4.895,3.505 1.895,0.821 3.957,1.231 6.189,1.231 2.231,0 4.294,-0.41 6.189,-1.231 1.895,-0.821 3.526,-1.989 4.894,-3.505 1.368,-1.516 2.432,-3.325 3.189,-5.431 0.758,-2.105 1.137,-4.462 1.137,-7.073 0,-2.568 -0.379,-4.915 -1.137,-7.042 -0.758,-2.125 -1.822,-3.947 -3.189,-5.463 z m -4.295,21.315 c -1.664,2.169 -3.926,3.253 -6.789,3.253 -2.864,0 -5.126,-1.083 -6.789,-3.253 -1.664,-2.168 -2.495,-5.105 -2.495,-8.81 0,-3.705 0.831,-6.641 2.495,-8.81 1.663,-2.168 3.925,-3.253 6.789,-3.253 2.863,0 5.125,1.085 6.789,3.253 1.663,2.169 2.495,5.106 2.495,8.81 0,3.705 -0.832,6.642 -2.495,8.81 z"
   id="path5"
   style="fill:#ffffff" />
	<path
   fill="#F16625"
   d="m 44.531,14.977 c -0.906,-1.347 -2.158,-2.389 -3.758,-3.126 -1.6,-0.736 -3.663,-1.105 -6.189,-1.105 -1.306,0 -2.526,0.137 -3.663,0.41 -1.137,0.274 -2.169,0.59 -3.095,0.947 -0.927,0.358 -1.705,0.726 -2.337,1.105 -0.631,0.379 -1.095,0.674 -1.389,0.884 -0.969,-1.094 -2.169,-1.926 -3.6,-2.494 -1.432,-0.568 -3.2,-0.853 -5.305,-0.853 -2.905,0 -5.463,0.189 -7.673,0.568 -1.18,0.202 -2.233,0.398 -3.166,0.589 L 4.35,11.898 4.086,11.958 C 3.38,12.105 2.744,12.248 2.187,12.387 V 12.39 L 0,12.888 0.314,17.593 2.187,17.307 V 44.28 H 8.06 V 16.556 c 0.168,-0.041 0.505,-0.105 1.01,-0.189 0.505,-0.084 1.063,-0.158 1.674,-0.221 0.61,-0.063 1.252,-0.115 1.926,-0.158 0.673,-0.041 1.305,-0.063 1.895,-0.063 1.389,0 2.536,0.221 3.442,0.663 0.905,0.442 1.62,1.127 2.147,2.052 0.526,0.927 0.894,2.084 1.105,3.474 0.21,1.389 0.316,3.053 0.316,4.989 V 44.28 h 5.873 V 25.839 c 0,-1.431 -0.085,-2.8 -0.253,-4.105 -0.169,-1.304 -0.421,-2.504 -0.758,-3.6 0.463,-0.42 1.336,-0.894 2.621,-1.421 1.284,-0.526 2.915,-0.789 4.894,-0.789 1.431,0 2.599,0.221 3.505,0.663 0.905,0.442 1.62,1.127 2.147,2.052 0.526,0.927 0.884,2.084 1.074,3.474 0.189,1.389 0.284,3.053 0.284,4.989 V 44.28 h 5.873 V 25.839 c 0,-2.189 -0.158,-4.21 -0.474,-6.063 -0.314,-1.852 -0.925,-3.451 -1.83,-4.799 z"
   id="path7"
   style="fill:#ffffff" />
	<path
   fill="#F16625"
   d="m 141.98,10.619 c -1.894,0 -3.748,0.358 -5.558,1.073 -1.811,0.716 -3.41,1.79 -4.8,3.221 -1.389,1.432 -2.506,3.232 -3.347,5.4 -0.843,2.169 -1.263,4.705 -1.263,7.61 0,2.485 0.326,4.768 0.979,6.852 0.652,2.084 1.652,3.884 3,5.4 1.347,1.516 3.063,2.706 5.147,3.568 2.084,0.862 4.557,1.295 7.42,1.295 2.274,0 4.305,-0.211 6.094,-0.631 1.789,-0.42 3.041,-0.821 3.758,-1.2 l -0.821,-4.926 c -0.716,0.337 -1.779,0.685 -3.189,1.042 -1.411,0.358 -3.148,0.537 -5.21,0.537 -3.663,0 -6.358,-0.884 -8.084,-2.653 -1.727,-1.768 -2.715,-4.358 -2.968,-7.768 h 22.483 c 0.041,-0.336 0.063,-0.705 0.063,-1.105 0,-0.4 0,-0.726 0,-0.979 0,-5.641 -1.179,-9.841 -3.537,-12.599 -2.358,-2.757 -5.746,-4.137 -10.167,-4.137 z m -8.716,14.084 c 0.126,-1.137 0.389,-2.252 0.789,-3.347 0.4,-1.094 0.957,-2.062 1.673,-2.905 0.715,-0.842 1.589,-1.525 2.621,-2.052 1.031,-0.526 2.22,-0.789 3.568,-0.789 2.4,0 4.284,0.852 5.652,2.558 1.368,1.705 2.031,3.884 1.99,6.536 h -16.293 z"
   id="path9"
   style="fill:#ffffff" />
	<path
   fill="#F16625"
   d="m 226.285,14.96 c -1.055,-1.348 -2.447,-2.393 -4.175,-3.128 -1.727,-0.738 -3.856,-1.107 -6.386,-1.107 -2.908,0 -5.467,0.195 -7.682,0.567 -3.429,0.577 -7.532,1.574 -7.532,1.574 l 0.315,4.662 1.877,-0.288 V 44.3 h 5.881 V 16.542 c 0.209,-0.085 0.56,-0.159 1.041,-0.221 0.484,-0.064 1.024,-0.127 1.615,-0.19 0.589,-0.064 1.222,-0.117 1.897,-0.158 0.675,-0.044 1.329,-0.063 1.959,-0.063 2.993,0 5.124,0.863 6.388,2.591 1.261,1.729 1.893,4.594 1.893,8.601 V 44.3 h 5.879 V 25.836 c 0,-2.235 -0.229,-4.268 -0.695,-6.102 -0.465,-1.834 -1.221,-3.425 -2.275,-4.774 z"
   id="path11"
   style="fill:#ffffff" />
	<path
   fill="#F16625"
   d="m 166.922,43.589 c -0.379,-0.379 -0.654,-0.885 -0.822,-1.517 -0.17,-0.634 -0.252,-1.432 -0.252,-2.403 V 0.151 l -8.487,1.453 0.41,4.954 2.196,-0.388 v 34.447 c 0,3.121 0.759,5.418 2.277,6.892 1.518,1.477 4.088,2.255 7.713,2.34 l 0.82,-4.932 c -0.924,-0.126 -1.706,-0.284 -2.34,-0.474 -0.627,-0.189 -1.133,-0.474 -1.515,-0.854 z"
   id="path13"
   style="fill:#ffffff" />
	<path
   fill="#F16625"
   d="m 184.822,10.598 c -1.895,0 -3.754,0.358 -5.565,1.074 -1.813,0.717 -3.413,1.793 -4.804,3.224 -1.391,1.435 -2.511,3.238 -3.354,5.407 -0.843,2.172 -1.263,4.712 -1.263,7.62 0,2.489 0.326,4.773 0.978,6.86 0.655,2.088 1.655,3.89 3.005,5.407 1.35,1.516 3.066,2.708 5.153,3.572 2.086,0.864 4.562,1.295 7.427,1.295 2.28,0 4.31,-0.211 6.103,-0.631 1.793,-0.422 3.044,-0.822 3.762,-1.2 l -0.822,-4.933 c -0.716,0.338 -1.782,0.685 -3.192,1.043 -1.413,0.359 -3.151,0.538 -5.216,0.538 -3.67,0 -6.367,-0.884 -8.095,-2.656 -1.727,-1.77 -2.717,-4.362 -2.969,-7.778 h 22.51 c 0.041,-0.336 0.061,-0.705 0.061,-1.107 0,-0.398 0,-0.726 0,-0.979 0,-5.647 -1.182,-9.852 -3.541,-12.613 -2.359,-2.762 -5.754,-4.143 -10.178,-4.143 z m -8.726,14.099 c 0.127,-1.138 0.388,-2.254 0.789,-3.35 0.4,-1.097 0.958,-2.064 1.676,-2.91 0.716,-0.842 1.59,-1.525 2.624,-2.054 1.034,-0.527 2.223,-0.79 3.571,-0.79 2.405,0 4.292,0.854 5.66,2.561 1.368,1.706 2.033,3.888 1.994,6.544 h -16.314 z"
   id="path15"
   style="fill:#ffffff" />
	<path
   fill="#F16625"
   d="m 255.305,31.874 c -0.466,-1.074 -1.128,-1.991 -1.992,-2.75 -0.863,-0.759 -1.908,-1.425 -3.13,-1.992 -1.225,-0.569 -2.615,-1.148 -4.172,-1.738 -1.179,-0.421 -2.193,-0.823 -3.034,-1.203 -0.846,-0.379 -1.549,-0.791 -2.119,-1.232 -0.57,-0.444 -0.991,-0.939 -1.264,-1.487 -0.275,-0.547 -0.412,-1.18 -0.412,-1.896 0,-1.391 0.611,-2.414 1.834,-3.067 1.218,-0.654 2.657,-0.98 4.3,-0.98 1.116,0 2.135,0.064 3.064,0.189 l -0.349,1.969 4.914,0.443 1.283,-6.079 c -0.336,-0.127 -0.812,-0.273 -1.419,-0.443 -0.611,-0.167 -1.32,-0.325 -2.121,-0.473 -0.8,-0.147 -1.665,-0.274 -2.595,-0.38 -0.925,-0.105 -1.852,-0.158 -2.777,-0.158 -3.711,0 -6.64,0.854 -8.79,2.562 -2.15,1.706 -3.224,4.013 -3.224,6.922 0,1.476 0.252,2.718 0.759,3.732 0.502,1.011 1.18,1.875 2.019,2.592 0.846,0.716 1.846,1.339 3.008,1.865 1.158,0.526 2.373,1.042 3.634,1.549 2.613,1.053 4.49,2.002 5.627,2.843 1.143,0.845 1.706,1.983 1.706,3.416 0,1.391 -0.578,2.402 -1.735,3.034 -1.159,0.633 -2.942,0.948 -5.343,0.948 -1.737,0 -3.22,-0.128 -4.468,-0.384 l 0.382,-2.152 -4.829,-0.411 -1.268,6.109 c 0.589,0.253 1.709,0.622 3.352,1.107 1.645,0.484 3.922,0.724 6.831,0.724 4.169,0 7.386,-0.779 9.641,-2.34 2.254,-1.558 3.382,-3.856 3.382,-6.89 0,-1.557 -0.23,-2.874 -0.695,-3.949 z"
   id="path17"
   style="fill:#ffffff" />
	<path
   fill="#F16625"
   d="m 104.776,11.089 c -0.505,2.063 -1.105,4.614 -1.8,6.95 -0.695,2.337 -1.432,4.653 -2.21,6.947 -0.779,2.295 -1.569,4.516 -2.368,6.663 -0.8,2.147 -1.558,4.064 -2.274,5.747 -0.716,-1.683 -1.474,-3.6 -2.274,-5.747 -0.8,-2.147 -1.59,-4.368 -2.368,-6.663 -0.78,-2.294 -1.516,-4.61 -2.211,-6.947 -0.695,-2.337 -1.295,-4.887 -1.8,-6.95 L 79.256,11.44 80,15.887 h 2.407 c 1.347,4.557 2.855,8.969 4.527,13.236 2.21,5.643 4.347,10.695 6.41,15.157 h 5.305 c 2.062,-4.462 4.2,-9.515 6.41,-15.157 1.672,-4.267 3.181,-8.68 4.527,-13.236 h 2.151 l 0.744,-4.447 z"
   id="path19"
   style="fill:#ffffff" />
	<g
   id="g21"
   style="fill:#ffffff">
		<path
   fill="#F16625"
   d="m 119.561,7.856 c 1.052,0 1.947,-0.347 2.684,-1.042 0.736,-0.695 1.105,-1.631 1.105,-2.81 0,-1.178 -0.369,-2.115 -1.105,-2.81 -0.737,-0.695 -1.632,-1.042 -2.684,-1.042 -1.053,0 -1.948,0.347 -2.684,1.042 -0.737,0.695 -1.105,1.632 -1.105,2.81 0,1.179 0.368,2.116 1.105,2.81 0.736,0.694 1.631,1.042 2.684,1.042 z"
   id="path23"
   style="fill:#ffffff" />
		<polygon
   fill="#F16625"
   points="114.491,11.44 114.667,15.766 117.098,16.006 117.098,39.743 114.978,39.954 114.803,44.28 117.098,44.28 122.979,44.28 125.274,44.28 125.098,39.954 122.979,39.743 122.979,10.831 "
   id="polygon25"
   style="fill:#ffffff" />
	</g>
</g></svg>
